<svg xmlns="http://www.w3.org/2000/svg" viewBox="0 0 512 512" fill="none">
  <defs>
    <linearGradient id="bg" x1="0" y1="0" x2="512" y2="512" gradientUnits="userSpaceOnUse">
      <stop offset="0%" stop-color="#0f172a"/>
      <stop offset="100%" stop-color="#1e1b4b"/>
    </linearGradient>
    <linearGradient id="shield" x1="160" y1="100" x2="352" y2="400" gradientUnits="userSpaceOnUse">
      <stop offset="0%" stop-color="#6366f1"/>
      <stop offset="100%" stop-color="#4f46e5"/>
    </linearGradient>
    <linearGradient id="check" x1="200" y1="240" x2="310" y2="320" gradientUnits="userSpaceOnUse">
      <stop offset="0%" stop-color="#34d399"/>
      <stop offset="100%" stop-color="#10b981"/>
    </linearGradient>
    <filter id="glow" x="-50%" y="-50%" width="200%" height="200%">
      <feGaussianBlur stdDeviation="8" result="blur"/>
      <feMerge>
        <feMergeNode in="blur"/>
        <feMergeNode in="SourceGraphic"/>
      </feMerge>
    </filter>
    <filter id="shadow">
      <feDropShadow dx="0" dy="4" stdDeviation="8" flood-color="#000" flood-opacity="0.3"/>
    </filter>
  </defs>

  <!-- Background -->
  <rect width="512" height="512" rx="96" fill="url(#bg)"/>

  <!-- Subtle grid pattern -->
  <line x1="128" y1="0" x2="128" y2="512" stroke="#1e293b" stroke-width="0.5" opacity="0.3"/>
  <line x1="256" y1="0" x2="256" y2="512" stroke="#1e293b" stroke-width="0.5" opacity="0.3"/>
  <line x1="384" y1="0" x2="384" y2="512" stroke="#1e293b" stroke-width="0.5" opacity="0.3"/>
  <line x1="0" y1="128" x2="512" y2="128" stroke="#1e293b" stroke-width="0.5" opacity="0.3"/>
  <line x1="0" y1="256" x2="512" y2="256" stroke="#1e293b" stroke-width="0.5" opacity="0.3"/>
  <line x1="0" y1="384" x2="512" y2="384" stroke="#1e293b" stroke-width="0.5" opacity="0.3"/>

  <!-- Shield shape -->
  <path d="M256 90 L370 145 C370 145 380 290 256 410 C132 290 142 145 142 145 Z"
        fill="url(#shield)" filter="url(#shadow)" opacity="0.9"/>

  <!-- Shield inner highlight -->
  <path d="M256 110 L355 158 C355 158 363 282 256 390 C149 282 157 158 157 158 Z"
        fill="none" stroke="#818cf8" stroke-width="1.5" opacity="0.4"/>

  <!-- Gate bars -->
  <rect x="210" y="180" width="8" height="140" rx="4" fill="#a5b4fc" opacity="0.3"/>
  <rect x="248" y="180" width="8" height="140" rx="4" fill="#a5b4fc" opacity="0.3"/>
  <rect x="286" y="180" width="8" height="140" rx="4" fill="#a5b4fc" opacity="0.3"/>

  <!-- Checkmark -->
  <polyline points="210,270 245,310 310,230" stroke="url(#check)" stroke-width="20"
            stroke-linecap="round" stroke-linejoin="round" fill="none" filter="url(#glow)"/>

  <!-- GATE text -->
  <text x="256" y="450" text-anchor="middle" font-family="system-ui, -apple-system, sans-serif"
        font-size="28" font-weight="700" fill="#94a3b8" letter-spacing="6">GATE</text>
</svg>
